<svg width="16" height="16" viewBox="0 0 16 16" fill="none" xmlns="http://www.w3.org/2000/svg">
<path d="M11.9375 8.40625C11.9375 7.25 12.4688 6.40625 13.5 5.75C12.9062 4.90625 12.0312 4.46875 10.875 4.375C9.75 4.28125 8.53125 5 8.09375 5C7.625 5 6.5625 4.40625 5.71875 4.40625C3.96875 4.4375 2.125 5.78125 2.125 8.5625C2.125 9.375 2.25 10.2188 2.5625 11.0938C2.96875 12.25 4.40625 15.0625 5.90625 15C6.6875 15 7.25 14.4375 8.28125 14.4375C9.28125 14.4375 9.78125 15 10.6562 15C12.1875 15 13.5 12.4375 13.875 11.2812C11.8438 10.3125 11.9375 8.46875 11.9375 8.40625ZM10.1875 3.28125C11.0312 2.28125 10.9375 1.34375 10.9375 1C10.1875 1.0625 9.3125 1.53125 8.8125 2.09375C8.25 2.71875 7.9375 3.5 8 4.34375C8.8125 4.40625 9.5625 4 10.1875 3.28125Z" fill="#595766"/>
</svg>
