<?xml version="1.0" encoding="UTF-8"?>
<svg id="Layer_1" data-name="Layer 1" xmlns="http://www.w3.org/2000/svg" viewBox="0 0 256 256">
  <defs>
    <style>
      .cls-1 {
        fill: #fff;
      }

      .cls-2 {
        fill: #05a6cf;
      }
    </style>
  </defs>
  <rect class="cls-2" x=".5" width="256" height="256" rx="24" ry="24"/>
  <g id="Artwork_11" data-name="Artwork 11">
    <g id="Layer_1-2" data-name="Layer 1">
      <path class="cls-1" d="m181.66,73.98c10.2,10.5,15.31,26.09,15.31,46.74v80.87h-38.85v-74.56c0-11.2-2.33-19.56-6.97-25.07-4.64-5.51-11.37-8.27-20.16-8.27-9.8,0-17.6,3.19-23.41,9.58-5.82,6.39-8.72,15.89-8.72,28.49v69.84h-38.84V72.14l37.11-17.72v22.45c5.14-5.95,11.53-10.55,19.16-13.78,7.63-3.24,16.02-4.86,25.15-4.86,16.59,0,30,5.26,40.21,15.75"/>
    </g>
  </g>
</svg>